<svg width="49" height="50" viewBox="0 0 49 50" fill="none" xmlns="http://www.w3.org/2000/svg">
<rect y="0.428101" width="48.6435" height="48.6435" rx="24.3218" fill="#A2C5EA"/>
<path d="M16.7213 33.3638C16.7213 33.3638 15.2012 33.3638 15.2012 31.8436C15.2012 30.3235 16.7213 25.7632 24.3218 25.7632C31.9224 25.7632 33.4425 30.3235 33.4425 31.8436C33.4425 33.3638 31.9224 33.3638 31.9224 33.3638H16.7213ZM24.3218 24.2431C25.5313 24.2431 26.6912 23.7626 27.5465 22.9074C28.4017 22.0522 28.8822 20.8922 28.8822 19.6828C28.8822 18.4733 28.4017 17.3134 27.5465 16.4581C26.6912 15.6029 25.5313 15.1224 24.3218 15.1224C23.1124 15.1224 21.9524 15.6029 21.0972 16.4581C20.242 17.3134 19.7615 18.4733 19.7615 19.6828C19.7615 20.8922 20.242 22.0522 21.0972 22.9074C21.9524 23.7626 23.1124 24.2431 24.3218 24.2431Z" fill="#E0804D"/>
</svg>
